<svg width="32" height="32" viewBox="0 0 32 32" fill="none" xmlns="http://www.w3.org/2000/svg">
<g filter="url(#filter0_d_623:3020)">
<path d="M19.7835 21.9775C17.7933 23.1438 15.0568 23.2637 12.3036 22.0666C10.0744 21.1044 8.22477 19.4201 7.03906 17.4958C7.6082 17.9769 8.27219 18.3619 8.98359 18.6985C11.8268 20.0505 14.6695 19.9579 16.6699 18.702C16.6687 18.7007 16.6678 18.6998 16.667 18.6985C13.8212 16.4851 11.4024 13.5982 9.60024 11.2407C9.22066 10.8558 8.93609 10.3746 8.65151 9.94156C10.8332 11.9624 14.2956 14.5124 15.5285 15.2344C12.9203 12.4435 10.5961 8.97938 10.6908 9.07543C14.8171 13.3096 18.659 15.7155 18.659 15.7155C18.7861 15.7882 18.8842 15.8488 18.9631 15.9029C19.0462 15.6883 19.1192 15.4655 19.1806 15.2344C19.8446 12.7805 19.0859 9.98959 17.4257 7.68018C21.2672 10.0378 23.544 14.4643 22.5952 18.1694C22.5704 18.2694 22.5436 18.368 22.5146 18.4649C22.5257 18.4783 22.5367 18.4922 22.5478 18.5065C24.4447 20.9123 23.9231 23.4623 23.686 22.9812C22.657 20.9383 20.752 21.563 19.7836 21.9775L19.7835 21.9775Z" fill="#00CFFD"/>
</g>
<defs>
<filter id="filter0_d_623:3020" x="-42.292" y="-41.6509" width="115.558" height="114.022" filterUnits="userSpaceOnUse" color-interpolation-filters="sRGB">
<feFlood flood-opacity="0" result="BackgroundImageFix"/>
<feColorMatrix in="SourceAlpha" type="matrix" values="0 0 0 0 0 0 0 0 0 0 0 0 0 0 0 0 0 0 127 0" result="hardAlpha"/>
<feOffset/>
<feGaussianBlur stdDeviation="24.6655"/>
<feColorMatrix type="matrix" values="0 0 0 0 0.250017 0 0 0 0 0.215353 0 0 0 0 0.847968 0 0 0 0.610768 0"/>
<feBlend mode="normal" in2="BackgroundImageFix" result="effect1_dropShadow_623:3020"/>
<feBlend mode="normal" in="SourceGraphic" in2="effect1_dropShadow_623:3020" result="shape"/>
</filter>
</defs>
</svg>
