<svg width="30" height="30" viewBox="0 0 30 30" fill="none" xmlns="http://www.w3.org/2000/svg">
<path d="M24 15.0167C24 13.8243 22.5067 12.6943 20.2173 11.9935C20.7456 9.66001 20.5108 7.80351 19.4762 7.20913C19.2377 7.06971 18.9588 7.00367 18.6543 7.00367V7.82185C18.8231 7.82185 18.9588 7.85487 19.0726 7.91724C19.5715 8.20342 19.788 9.29311 19.6192 10.6947C19.5789 11.0395 19.5128 11.4028 19.4321 11.7733C18.713 11.5972 17.9278 11.4615 17.1023 11.3734C16.607 10.6947 16.0934 10.0783 15.576 9.53893C16.7721 8.42723 17.8948 7.81818 18.658 7.81818V7C17.649 7 16.3282 7.71912 14.9927 8.96657C13.6572 7.72646 12.3363 7.01468 11.3274 7.01468V7.83286C12.0868 7.83286 13.2132 8.43824 14.4093 9.5426C13.8956 10.0819 13.382 10.6947 12.894 11.3734C12.0648 11.4615 11.2797 11.5972 10.5605 11.777C10.4762 11.4101 10.4138 11.0542 10.3698 10.713C10.1973 9.31146 10.4101 8.22177 10.9054 7.93192C11.0155 7.86588 11.1586 7.83653 11.3274 7.83653V7.01834C11.0192 7.01834 10.7403 7.08439 10.4982 7.22381C9.46718 7.81818 9.23604 9.67101 9.76804 11.9971C7.48594 12.7016 6 13.828 6 15.0167C6 16.2091 7.49327 17.3392 9.78271 18.04C9.25438 20.3734 9.4892 22.2299 10.5238 22.8243C10.7623 22.9637 11.0412 23.0298 11.3494 23.0298C12.3583 23.0298 13.6792 22.3106 15.0147 21.0632C16.3502 22.3033 17.671 23.0151 18.68 23.0151C18.9882 23.0151 19.267 22.949 19.5092 22.8096C20.5402 22.2152 20.7713 20.3624 20.2393 18.0363C22.5141 17.3355 24 16.2055 24 15.0167ZM19.223 12.5695C19.0872 13.0428 18.9185 13.5308 18.7277 14.0188C18.5773 13.7252 18.4195 13.4317 18.247 13.1382C18.0783 12.8447 17.8985 12.5585 17.7187 12.2797C18.2397 12.3567 18.7424 12.4521 19.223 12.5695ZM17.5426 16.477C17.2564 16.9723 16.9629 17.4419 16.6584 17.8785C16.1117 17.9262 15.5577 17.9519 15 17.9519C14.446 17.9519 13.892 17.9262 13.349 17.8822C13.0444 17.4456 12.7472 16.9796 12.4611 16.488C12.1822 16.0073 11.9291 15.5194 11.6979 15.0277C11.9254 14.5361 12.1822 14.0444 12.4574 13.5638C12.7436 13.0685 13.0371 12.5989 13.3416 12.1622C13.8883 12.1146 14.4423 12.0889 15 12.0889C15.554 12.0889 16.108 12.1146 16.651 12.1586C16.9556 12.5952 17.2528 13.0611 17.5389 13.5528C17.8178 14.0334 18.0709 14.5214 18.3021 15.013C18.0709 15.5047 17.8178 15.9963 17.5426 16.477ZM18.7277 16C18.9258 16.4916 19.0946 16.9833 19.234 17.4603C18.7534 17.5777 18.247 17.6767 17.7224 17.7538C17.9022 17.4713 18.0819 17.1814 18.2507 16.8842C18.4195 16.5907 18.5773 16.2935 18.7277 16ZM15.0073 19.9148C14.6661 19.5626 14.3249 19.17 13.9874 18.7407C14.3176 18.7554 14.6551 18.7664 14.9963 18.7664C15.3412 18.7664 15.6824 18.7591 16.0163 18.7407C15.6861 19.17 15.3449 19.5626 15.0073 19.9148ZM12.2776 17.7538C11.7566 17.6767 11.254 17.5813 10.7733 17.4639C10.9091 16.9906 11.0779 16.5026 11.2687 16.0147C11.4191 16.3082 11.5768 16.6017 11.7493 16.8952C11.9217 17.1887 12.0978 17.4749 12.2776 17.7538ZM14.989 10.1186C15.3302 10.4709 15.6714 10.8634 16.009 11.2927C15.6788 11.278 15.3412 11.267 15 11.267C14.6551 11.267 14.3139 11.2744 13.98 11.2927C14.3102 10.8634 14.6514 10.4709 14.989 10.1186ZM12.274 12.2797C12.0942 12.5622 11.9144 12.852 11.7456 13.1492C11.5768 13.4427 11.4191 13.7362 11.2687 14.0298C11.0705 13.5381 10.9018 13.0465 10.7623 12.5695C11.243 12.4558 11.7493 12.3567 12.274 12.2797ZM8.95353 16.8732C7.65471 16.3192 6.81451 15.5927 6.81451 15.0167C6.81451 14.4407 7.65471 13.7106 8.95353 13.1602C9.26906 13.0245 9.61394 12.9034 9.96983 12.7896C10.179 13.5088 10.4541 14.2572 10.7954 15.0241C10.4578 15.7872 10.1863 16.532 9.98084 17.2475C9.61761 17.1337 9.27273 17.009 8.95353 16.8732ZM10.9274 22.1162C10.4285 21.83 10.212 20.7403 10.3808 19.3388C10.4211 18.9939 10.4872 18.6307 10.5679 18.2601C11.287 18.4362 12.0722 18.572 12.8977 18.66C13.393 19.3388 13.9066 19.9552 14.424 20.4945C13.2279 21.6062 12.1052 22.2152 11.342 22.2152C11.1769 22.2116 11.0375 22.1786 10.9274 22.1162ZM19.6302 19.3204C19.8027 20.722 19.5899 21.8117 19.0946 22.1015C18.9845 22.1675 18.8414 22.1969 18.6726 22.1969C17.9132 22.1969 16.7868 21.5915 15.5907 20.4872C16.1044 19.9478 16.618 19.3351 17.106 18.6563C17.9352 18.5683 18.7203 18.4325 19.4395 18.2528C19.5238 18.6233 19.5899 18.9792 19.6302 19.3204ZM21.0428 16.8732C20.7273 17.009 20.3824 17.13 20.0265 17.2438C19.8174 16.5247 19.5422 15.7762 19.201 15.0094C19.5385 14.2462 19.81 13.5014 20.0155 12.786C20.3787 12.8997 20.7236 13.0245 21.0465 13.1602C22.3453 13.7142 23.1855 14.4407 23.1855 15.0167C23.1818 15.5927 22.3416 16.3229 21.0428 16.8732Z" fill="#61DAFB"/>
<path d="M14.9961 16.6935C15.9221 16.6935 16.6728 15.9428 16.6728 15.0168C16.6728 14.0908 15.9221 13.3401 14.9961 13.3401C14.07 13.3401 13.3193 14.0908 13.3193 15.0168C13.3193 15.9428 14.07 16.6935 14.9961 16.6935Z" fill="#61DAFB"/>
</svg>
